<svg id="ae1e215d-ac3c-4175-bb5b-2fc435f7a276" data-name="Слой 1" xmlns="http://www.w3.org/2000/svg" xmlns:xlink="http://www.w3.org/1999/xlink" viewBox="0 0 307.2 306.64"><defs><style>.a8343db6-1abf-448d-af1e-549946963b33{fill:url(#bfc95c92-5d3d-44da-9dca-b4c247b58c2f);}</style><linearGradient id="bfc95c92-5d3d-44da-9dca-b4c247b58c2f" x1="266.22" y1="80.09" x2="284.93" y2="503.02" gradientUnits="userSpaceOnUse"><stop offset="0" stop-color="#daffef"/><stop offset="0.5" stop-color="#fcffe9"/><stop offset="1" stop-color="#fce8ff"/></linearGradient></defs><path class="a8343db6-1abf-448d-af1e-549946963b33" d="M121.23,410.71v-6.58a22.11,22.11,0,0,0,.53-2.62q3-41.5,5.95-83c2.89-40.61,5.84-81.22,8.58-121.84,1-14.06,6.84-24.79,19.59-31.34,20.69-10.62,46.85,3.61,48.7,26.77.56,7-.18,14.15-.57,21.21-1,18.93-2.22,37.86-3.34,56.79-.44,7.41-.84,14.83-1.26,22.25l.92.71a21.12,21.12,0,0,1,2.06-2.85q84-83.88,168-167.73c1.2-1.2,2.41-2.39,3.68-3.52a32.6,32.6,0,0,1,52.19,12.78c.87,2.29,1.46,4.7,2.18,7.05v8.39c-1.66,10.56-8.25,17.93-15.53,25.18q-82.32,81.89-164.38,164c-.81.8-1.57,1.66-2.78,2.94l7.21-.45c22.85-1.35,45.69-2.75,68.55-4,8.47-.46,17-1.28,25.43-.73,16.88,1.1,30.26,16.4,30.32,33.69.07,16.95-13.61,32.47-30.3,33.88-18.82,1.59-37.66,2.84-56.5,4.19q-31.41,2.25-62.81,4.43-36.48,2.58-73,5.23c-6.76.49-13.5,1.16-20.25,1.75h-6.6A11.06,11.06,0,0,1,121.23,410.71Z" transform="translate(-121.23 -110.67)"/></svg>